<svg  viewBox="0 0 16 16" fill="none" xmlns="http://www.w3.org/2000/svg">
<mask id="mask0_527_2500" style="mask-type:alpha" maskUnits="userSpaceOnUse" x="0" y="0" width="16" height="16">
<rect width="16" height="16" fill="current"/>
</mask>
<g mask="url(#mask0_527_2500)">
<path d="M2.66671 13.3334C2.30004 13.3334 1.98615 13.2028 1.72504 12.9417C1.46393 12.6806 1.33337 12.3667 1.33337 12V4.00002C1.33337 3.63335 1.46393 3.31946 1.72504 3.05835C1.98615 2.79724 2.30004 2.66669 2.66671 2.66669H13.3334C13.7 2.66669 14.0139 2.79724 14.275 3.05835C14.5362 3.31946 14.6667 3.63335 14.6667 4.00002V12C14.6667 12.3667 14.5362 12.6806 14.275 12.9417C14.0139 13.2028 13.7 13.3334 13.3334 13.3334H2.66671ZM8.00004 8.55002C8.0556 8.55002 8.11393 8.54169 8.17504 8.52502C8.23615 8.50835 8.29449 8.48335 8.35004 8.45002L13.0667 5.50002C13.1556 5.44446 13.2223 5.37502 13.2667 5.29169C13.3112 5.20835 13.3334 5.11669 13.3334 5.01669C13.3334 4.79446 13.2389 4.6278 13.05 4.51669C12.8612 4.40558 12.6667 4.41113 12.4667 4.53335L8.00004 7.33335L3.53337 4.53335C3.33337 4.41113 3.13893 4.40835 2.95004 4.52502C2.76115 4.64169 2.66671 4.80558 2.66671 5.01669C2.66671 5.1278 2.68893 5.22502 2.73337 5.30835C2.77782 5.39169 2.84449 5.45558 2.93337 5.50002L7.65004 8.45002C7.7056 8.48335 7.76393 8.50835 7.82504 8.52502C7.88615 8.54169 7.94448 8.55002 8.00004 8.55002Z" fill="current"/>
</g>
</svg>
