<svg width="16" height="16" viewBox="0 0 16 16" fill="none" xmlns="http://www.w3.org/2000/svg">
<mask id="mask0_527_4319" style="mask-type:alpha" maskUnits="userSpaceOnUse" x="0" y="0" width="16" height="16">
<rect width="16" height="16" fill="#D9D9D9"/>
</mask>
<g mask="url(#mask0_527_4319)">
<path d="M3.99996 14.6667C3.63329 14.6667 3.3194 14.5361 3.05829 14.275C2.79718 14.0139 2.66663 13.7 2.66663 13.3334V6.66669C2.66663 6.30002 2.79718 5.98613 3.05829 5.72502C3.3194 5.46391 3.63329 5.33335 3.99996 5.33335H4.66663V4.00002C4.66663 3.0778 4.99163 2.29169 5.64163 1.64169C6.29163 0.991687 7.07774 0.666687 7.99996 0.666687C8.92218 0.666687 9.70829 0.991687 10.3583 1.64169C11.0083 2.29169 11.3333 3.0778 11.3333 4.00002V5.33335H12C12.3666 5.33335 12.6805 5.46391 12.9416 5.72502C13.2027 5.98613 13.3333 6.30002 13.3333 6.66669V13.3334C13.3333 13.7 13.2027 14.0139 12.9416 14.275C12.6805 14.5361 12.3666 14.6667 12 14.6667H3.99996ZM7.99996 11.3334C8.36663 11.3334 8.68052 11.2028 8.94163 10.9417C9.20274 10.6806 9.33329 10.3667 9.33329 10C9.33329 9.63335 9.20274 9.31947 8.94163 9.05835C8.68052 8.79724 8.36663 8.66669 7.99996 8.66669C7.63329 8.66669 7.3194 8.79724 7.05829 9.05835C6.79718 9.31947 6.66663 9.63335 6.66663 10C6.66663 10.3667 6.79718 10.6806 7.05829 10.9417C7.3194 11.2028 7.63329 11.3334 7.99996 11.3334ZM5.99996 5.33335H9.99996V4.00002C9.99996 3.44446 9.80552 2.97224 9.41663 2.58335C9.02774 2.19446 8.55551 2.00002 7.99996 2.00002C7.4444 2.00002 6.97218 2.19446 6.58329 2.58335C6.1944 2.97224 5.99996 3.44446 5.99996 4.00002V5.33335Z" fill="#646464"/>
</g>
</svg>
