<svg  viewBox="0 0 10 10" fill="none" xmlns="http://www.w3.org/2000/svg">
<path d="M3.93778 3.05357L3.96193 2.91985C3.96439 2.90665 3.97161 2.89482 3.98222 2.8866C3.99284 2.87839 4.0061 2.87436 4.01949 2.87529L4.05849 2.87806C4.07175 2.87878 4.08468 2.88246 4.09633 2.88883C4.10798 2.89521 4.11805 2.90411 4.1258 2.9149C4.13355 2.92568 4.13878 2.93806 4.14112 2.95113C4.14345 2.9642 4.14282 2.97763 4.13927 2.99043L4.11236 3.09257C4.10621 3.11469 4.09181 3.13361 4.07211 3.14541C4.05242 3.15722 4.02895 3.16101 4.00654 3.156C3.98413 3.151 3.96451 3.13758 3.95171 3.11852C3.93891 3.09946 3.93392 3.07621 3.93778 3.05357ZM3.89599 2.1157C3.89364 2.09506 3.88711 2.07511 3.8768 2.05707C3.86649 2.03902 3.85262 2.02327 3.83603 2.01076C3.81943 1.99825 3.80047 1.98925 3.78029 1.98431C3.76011 1.97937 3.73913 1.97858 3.71863 1.982L3.57935 2.00521C3.54531 2.0111 3.51422 2.02819 3.49101 2.05376C3.46779 2.07933 3.45378 2.11192 3.4512 2.14636V2.15007C3.4495 2.17363 3.45325 2.19727 3.46217 2.21914C3.4711 2.24101 3.48495 2.26052 3.50266 2.27616C3.52036 2.29179 3.54144 2.30313 3.56424 2.30929C3.58705 2.31544 3.61097 2.31625 3.63413 2.31164L3.77342 2.2847C3.81137 2.27714 3.84508 2.25554 3.8678 2.22421C3.89053 2.19288 3.90059 2.15413 3.89599 2.1157ZM4.39092 3.24486L4.53763 3.18636C4.55791 3.17835 4.576 3.16564 4.5904 3.14927C4.6048 3.1329 4.6151 3.11334 4.62045 3.09221C4.6258 3.07107 4.62605 3.04897 4.62118 3.02772C4.6163 3.00647 4.60645 2.98668 4.59242 2.96999L4.51906 2.87993C4.44199 2.78707 4.53763 2.56236 4.29992 2.5865C4.29134 2.58736 4.28308 2.59021 4.2758 2.59483C4.26852 2.59945 4.26242 2.60572 4.258 2.61312C4.25357 2.62052 4.25095 2.62885 4.25032 2.63745C4.2497 2.64606 4.2511 2.65468 4.25442 2.66264L4.31292 2.80192C4.36585 2.93007 4.20613 3.00435 4.20149 3.1102V3.11672C4.20136 3.13933 4.20681 3.16163 4.21735 3.18164C4.2279 3.20165 4.24322 3.21874 4.26195 3.23142C4.28069 3.24409 4.30226 3.25195 4.32475 3.25429C4.34725 3.25664 4.36997 3.2534 4.39092 3.24486ZM10 5C9.99976 6.32601 9.4729 7.59764 8.53527 8.53527C7.59764 9.4729 6.32601 9.99976 5 10C4.01109 10 3.0444 9.70675 2.22215 9.15735C1.39991 8.60794 0.759042 7.82705 0.380604 6.91342C0.00216606 5.99979 -0.0968501 4.99446 0.096076 4.02455C0.289002 3.05465 0.765205 2.16373 1.46447 1.46447C2.16373 0.765207 3.05465 0.289002 4.02455 0.0960757C4.99446 -0.0968503 5.99979 0.00216674 6.91342 0.380605C7.82705 0.759043 8.60794 1.39991 9.15735 2.22215C9.70675 3.0444 10 4.0111 10 5ZM9.20673 5.82344C9.00362 5.6715 9.37852 5.0821 9.08299 5.00822C8.91399 4.96364 9.01334 4.78349 8.836 4.72129L8.32806 4.54299C8.30196 4.53391 8.27381 4.53245 8.24692 4.53879C8.22002 4.54513 8.19549 4.55901 8.1762 4.57879C8.1569 4.59857 8.14365 4.62345 8.13798 4.65049C8.13231 4.67754 8.13447 4.70564 8.1442 4.7315L8.15813 4.76863C8.16578 4.78811 8.17751 4.80572 8.19254 4.82029C8.20756 4.83486 8.22553 4.84604 8.24524 4.85307C8.26494 4.86011 8.28593 4.86285 8.30678 4.8611C8.32764 4.85935 8.34787 4.85316 8.36613 4.84293C8.49576 4.76855 8.59717 4.92199 8.70413 5.02957C8.71794 5.04332 8.72885 5.05971 8.73621 5.07775C8.74357 5.0958 8.74723 5.11514 8.74697 5.13463C8.74671 5.15412 8.74253 5.17335 8.7347 5.19119C8.72686 5.20904 8.71552 5.22512 8.70134 5.2385C8.55988 5.37943 8.41044 5.51212 8.25377 5.63592L8.10799 5.68793C7.87213 5.77243 7.89906 5.37128 7.79786 5.27285L7.43199 4.91536C7.41876 4.90229 7.40256 4.89262 7.38477 4.8872C7.36698 4.88177 7.34814 4.88075 7.32987 4.88422C7.3116 4.88769 7.29444 4.89555 7.27988 4.90712C7.26532 4.91869 7.25379 4.93362 7.24627 4.95063C7.23856 4.96838 7.23538 4.98777 7.237 5.00706C7.23862 5.02634 7.245 5.04493 7.25556 5.06114C7.78113 5.85971 7.78949 5.93586 7.93063 5.89314L8.03185 5.86156C8.0487 5.85644 8.06623 5.85394 8.08385 5.85415C8.12835 5.85421 8.17123 5.87092 8.20404 5.90099C8.23686 5.93105 8.25725 5.9723 8.2612 6.01663C8.26415 6.04793 8.25837 6.07944 8.24449 6.10764C7.98263 6.66293 7.98542 6.688 7.88884 6.753L7.70963 6.87279C7.56013 6.97214 7.5592 7.13092 7.55085 7.28414C7.54156 7.43736 7.52392 7.58406 7.34099 7.65928C7.27874 7.68512 7.22602 7.72963 7.19011 7.78666C7.15419 7.8437 7.13683 7.91047 7.14043 7.97778L7.14135 7.98427C7.14427 8.03958 7.133 8.09472 7.10863 8.14444C7.08425 8.19417 7.04757 8.23685 7.00206 8.26842L6.43192 8.66306C6.39197 8.69062 6.34573 8.70769 6.29745 8.7127C6.24917 8.71771 6.20041 8.7105 6.15565 8.69173C6.1109 8.67296 6.07158 8.64323 6.04132 8.60528C6.01106 8.56733 5.99083 8.52239 5.98249 8.47457C5.85527 7.74842 5.84506 7.74936 5.86827 7.6565C5.9537 7.32314 5.98992 7.25349 5.93977 7.1272C5.8237 6.83379 5.76706 6.54685 5.46899 6.57472C4.41227 6.675 4.4002 6.69914 4.2507 6.61557C3.96378 6.45307 3.72792 6.37414 3.72142 6.08257C3.70656 5.4762 3.68427 5.40936 3.77435 5.271C4.31663 4.43713 4.29899 4.42322 4.42527 4.39443C4.99913 4.2635 5.18949 4.18271 5.49499 4.31364L6.0447 4.55043C6.07783 4.56478 6.11506 4.56656 6.14941 4.55546C6.18376 4.54435 6.21289 4.5211 6.23135 4.49007C6.27313 4.42136 6.29542 4.37028 6.37806 4.36192L7.04942 4.2895C7.07952 4.28626 7.10713 4.27128 7.12625 4.24781C7.14537 4.22433 7.15447 4.19427 7.15156 4.16413L7.14599 4.10564C7.1442 4.08592 7.13512 4.06757 7.12053 4.05418C7.10593 4.04078 7.08687 4.03331 7.06706 4.03322H6.76249C6.73366 4.03176 6.70633 4.01991 6.68556 3.99987C6.66479 3.97983 6.65197 3.95295 6.64948 3.92419C6.64699 3.89543 6.65499 3.86674 6.67201 3.84343C6.68903 3.82011 6.71391 3.80375 6.74206 3.79736C7.2147 3.70264 7.3057 3.71007 7.28992 3.60885C7.2602 3.42778 7.26485 3.32285 7.16735 3.334L6.66406 3.39436C6.63554 3.39749 6.60926 3.41129 6.59049 3.43299C6.57172 3.45469 6.56184 3.48268 6.56285 3.51136C6.56842 3.68686 6.58327 3.737 6.54799 3.78622C6.38549 4.01464 6.34092 4.12606 6.22856 4.07407C6.01963 3.97563 5.95278 3.96543 5.9277 3.89579C5.81628 3.58192 5.79956 3.44449 5.66772 3.4807L5.58785 3.50207C5.57258 3.50626 5.55835 3.51354 5.54603 3.52348C5.53371 3.53341 5.52357 3.54578 5.51625 3.55982C5.50893 3.57385 5.50458 3.58924 5.50348 3.60503C5.50238 3.62081 5.50455 3.63666 5.50985 3.65157C5.52742 3.72072 5.5573 3.78614 5.59806 3.8447L5.74385 3.95986C5.75719 3.97033 5.76803 3.98364 5.7756 3.99882C5.78317 4.014 5.78728 4.03066 5.78762 4.04762C5.78797 4.06458 5.78454 4.0814 5.77759 4.09687C5.77065 4.11235 5.76035 4.12608 5.74745 4.13709C5.73454 4.1481 5.71936 4.15611 5.70299 4.16053C5.68661 4.16496 5.66946 4.1657 5.65277 4.16269C5.63608 4.15968 5.62026 4.153 5.60647 4.14313C5.59267 4.13327 5.58124 4.12047 5.57299 4.10564C5.50056 3.97656 5.48756 3.92457 5.42906 3.90229L5.06414 3.763C4.88028 3.69336 4.80599 4.12886 4.60542 4.17993L4.33335 4.24864C4.31396 4.2538 4.29397 4.2563 4.27392 4.25607C4.21823 4.25597 4.1643 4.23657 4.1213 4.20119C4.0783 4.1658 4.04889 4.11661 4.03806 4.06199C4.03267 4.03362 4.03332 4.00444 4.03996 3.97634C4.0466 3.94824 4.05909 3.92185 4.07661 3.8989C4.09413 3.87594 4.1163 3.85694 4.14165 3.84313C4.16701 3.82931 4.19499 3.82099 4.22378 3.81871C4.53392 3.7955 4.61842 3.81407 4.62677 3.72121C4.63977 3.56334 4.35378 3.54664 4.46057 3.386C4.48842 3.34329 4.50607 3.30614 4.55063 3.2885C4.75492 3.21143 4.84592 3.20307 4.86727 3.11579L4.95828 2.75364C4.96234 2.73738 4.97003 2.72225 4.98078 2.70939C4.99153 2.69653 5.00505 2.68628 5.02033 2.67939C5.03561 2.67251 5.05226 2.66919 5.06901 2.66966C5.08577 2.67014 5.10219 2.67441 5.11706 2.68215L5.40028 2.83164C5.41727 2.84067 5.43633 2.84507 5.45556 2.84442C5.47478 2.84377 5.4935 2.83808 5.50985 2.82793C5.67513 2.72672 5.76056 2.70072 5.75313 2.60786C5.74292 2.47229 5.71413 2.36829 5.81628 2.33486C5.82722 2.33138 5.83675 2.32447 5.84344 2.31514C5.85014 2.30581 5.85364 2.29458 5.85344 2.2831C5.85323 2.27162 5.84932 2.26051 5.84229 2.25143C5.83526 2.24236 5.82548 2.23579 5.81442 2.23272C5.71042 2.20299 5.62313 2.19835 5.60549 2.11106C5.60103 2.08937 5.59018 2.06952 5.57432 2.05407C5.55846 2.03861 5.53834 2.02827 5.51655 2.02437C5.49475 2.02047 5.47229 2.0232 5.45206 2.03219C5.43183 2.04119 5.41476 2.05605 5.40306 2.07485C5.3687 2.1315 5.33992 2.17513 5.38356 2.23643C5.48756 2.3822 5.59342 2.47322 5.52286 2.56606L5.4987 2.59763C5.48918 2.61024 5.47706 2.62064 5.46316 2.62815C5.44926 2.63566 5.4339 2.64009 5.41814 2.64115C5.40238 2.64221 5.38658 2.63987 5.3718 2.63428C5.35702 2.6287 5.34361 2.62 5.33249 2.60879L5.17742 2.45372C5.16078 2.43718 5.13936 2.4263 5.11619 2.42263C5.09301 2.41896 5.06928 2.42269 5.04835 2.43329L4.87843 2.5215C4.864 2.52886 4.84813 2.53296 4.83194 2.5335C4.81575 2.53404 4.79964 2.53102 4.78475 2.52464C4.76987 2.51826 4.75656 2.50868 4.74579 2.49658C4.73502 2.48449 4.72704 2.47017 4.72242 2.45464C4.66856 2.2745 4.60728 2.16957 4.70013 2.10736C5.00656 1.90306 5.07899 1.88265 5.0957 1.7935L5.11613 1.6895C5.2192 1.14815 6.21092 1.38957 6.00292 1.67557C5.87663 1.84921 6.21556 2.03027 6.28893 1.82879C6.51917 1.20172 6.53036 1.33096 6.36413 1.12957C6.35151 1.11406 6.34515 1.09439 6.3463 1.07443C6.34745 1.05446 6.35602 1.03565 6.37033 1.02168C6.38465 1.00772 6.40367 0.999611 6.42365 0.998956C6.44364 0.998302 6.46315 1.00515 6.47835 1.01815C6.8962 1.38215 6.82377 1.36728 6.97699 1.30506L6.69725 1.06311C6.44977 0.957049 6.19281 0.874629 5.92981 0.816944L6.22763 1.12306C6.23724 1.13292 6.24468 1.14469 6.24945 1.1576C6.25423 1.17051 6.25625 1.18428 6.25538 1.19802C6.2545 1.21176 6.25075 1.22516 6.24437 1.23736C6.238 1.24956 6.22913 1.26029 6.21835 1.26885L6.17842 1.30135C6.16482 1.31227 6.14912 1.32026 6.13229 1.32484C6.11547 1.32941 6.09788 1.33047 6.08062 1.32795C6.06337 1.32542 6.04682 1.31936 6.03202 1.31016C6.01721 1.30095 6.00446 1.28879 5.99456 1.27443L5.74199 0.90486C5.73049 0.888557 5.72433 0.869092 5.72435 0.849144C5.72448 0.824391 5.73383 0.800576 5.75057 0.782347C5.23787 0.689033 4.7123 0.691695 4.20056 0.790194C4.2002 0.818144 4.19252 0.84551 4.17828 0.869562C3.5905 1.81114 3.61372 1.8037 3.54685 1.83529C2.75013 2.21229 2.74363 2.19835 2.70463 2.26242L2.56999 2.48529C2.55928 2.50297 2.54514 2.51833 2.52842 2.53048C2.5117 2.54263 2.49272 2.55133 2.4726 2.55606C2.45248 2.56079 2.43162 2.56146 2.41124 2.55803C2.39085 2.5546 2.37135 2.54715 2.35389 2.5361C2.33642 2.52505 2.32133 2.51062 2.3095 2.49367C2.29767 2.47672 2.28934 2.45758 2.28499 2.43738C2.28065 2.41717 2.28037 2.3963 2.28419 2.37598C2.28801 2.35567 2.29583 2.33632 2.30722 2.31906C2.89018 1.43769 3.01974 1.26535 3.04422 1.18852C2.89233 1.26634 2.74523 1.35315 2.60368 1.44848C2.60988 1.59667 2.34463 1.72309 2.3657 1.87707C2.37963 1.97829 2.40656 2.05907 2.33043 2.12222L1.98963 2.4017C1.96126 2.42466 1.92515 2.43584 1.88877 2.43291C1.85239 2.42999 1.81853 2.41319 1.79419 2.38599C1.76985 2.35879 1.7569 2.32327 1.75802 2.28679C1.75914 2.25031 1.77424 2.21566 1.8002 2.19L2.12056 1.87893C2.14239 1.85235 2.15823 1.82138 2.167 1.78813C1.66538 2.2307 1.27386 2.78413 1.02354 3.40448C1.06208 3.40232 1.09916 3.38897 1.13024 3.36607C1.16131 3.34316 1.18503 3.31168 1.19849 3.2755C1.26515 3.1171 1.32251 2.95494 1.37028 2.78986C1.38262 2.74113 1.41265 2.69875 1.45453 2.67094C1.4964 2.64314 1.54712 2.63191 1.59682 2.63944C1.64651 2.64697 1.69163 2.67272 1.72339 2.71168C1.75515 2.75064 1.77127 2.80002 1.76863 2.85022C1.73892 3.3052 1.76213 3.41572 1.61821 3.47793C1.50306 3.52807 1.29229 3.58563 1.35171 3.78529C1.4513 4.11469 1.47479 4.04175 1.30249 4.23286C1.29356 4.24276 1.28264 4.25067 1.27044 4.25605C1.25824 4.26143 1.24504 4.26416 1.23171 4.26407C1.21838 4.26399 1.20521 4.26108 1.19309 4.25554C1.18096 4.25 1.17014 4.24195 1.16135 4.23193C1.15051 4.21962 1.13667 4.21031 1.12118 4.2049C1.10569 4.19949 1.08907 4.19818 1.07292 4.20107C1.05677 4.20396 1.04164 4.21097 1.02899 4.22142C1.01634 4.23187 1.0066 4.2454 1.0007 4.26072L0.818705 4.73614C0.668002 5.12716 0.750955 5.44518 0.765871 5.66361C0.823971 6.03409 0.930873 6.39525 1.08379 6.73767C1.3481 6.74916 1.36474 6.74994 1.40835 6.76972C1.91442 7.00279 1.9367 7.00093 1.98499 7.05664L2.18742 7.29342C2.37129 7.50886 2.55977 7.19593 2.765 7.28414L3.11135 7.43364C3.38992 7.55342 3.17078 7.83849 3.27849 8.02328L3.4252 8.27399C3.44328 8.30555 3.4543 8.34066 3.45751 8.37689C3.46071 8.41312 3.45603 8.44961 3.44378 8.48386L3.43356 8.51357C3.33328 8.79027 3.72049 8.87756 3.74835 9.0865L3.75 9.09926C4.32381 9.27427 4.92796 9.32688 5.52338 9.25369C6.11881 9.1805 6.69223 8.98314 7.20657 8.67436C7.72091 8.36559 8.1647 7.95229 8.50924 7.4612C8.85379 6.97011 9.0914 6.41216 9.20673 5.82344Z" fill="current"/>
</svg>
