<svg  viewBox="0 0 16 16" fill="none" xmlns="http://www.w3.org/2000/svg">
<mask id="mask0_527_4324" style="mask-type:alpha" maskUnits="userSpaceOnUse" x="0" y="0" width="16" height="16">
<rect width="16" height="16" fill="current"/>
</mask>
<g mask="url(#mask0_527_4324)">
<path d="M12.8667 11L10.7333 8.86669C10.8222 8.6778 10.8889 8.48614 10.9333 8.29169C10.9778 8.09725 11 7.88891 11 7.66669C11 6.83336 10.7083 6.12502 10.125 5.54169C9.54166 4.95836 8.83333 4.66669 7.99999 4.66669C7.77777 4.66669 7.56944 4.68891 7.37499 4.73336C7.18055 4.7778 6.98888 4.84447 6.79999 4.93336L5.09999 3.23336C5.55555 3.04447 6.02221 2.9028 6.49999 2.80836C6.97777 2.71391 7.47777 2.66669 7.99999 2.66669C9.58888 2.66669 11.0167 3.08614 12.2833 3.92502C13.55 4.76391 14.5 5.85558 15.1333 7.20002C15.1667 7.25558 15.1889 7.32502 15.2 7.40836C15.2111 7.49169 15.2167 7.5778 15.2167 7.66669C15.2167 7.75558 15.2083 7.84169 15.1917 7.92502C15.175 8.00836 15.1555 8.0778 15.1333 8.13336C14.8778 8.70003 14.5583 9.2278 14.175 9.71669C13.7917 10.2056 13.3555 10.6334 12.8667 11ZM12.7333 14.6L10.4 12.3C10.0111 12.4222 9.61944 12.5139 9.22499 12.575C8.83055 12.6361 8.42221 12.6667 7.99999 12.6667C6.4111 12.6667 4.98333 12.2472 3.71666 11.4084C2.44999 10.5695 1.49999 9.4778 0.866659 8.13336C0.833325 8.0778 0.811103 8.00836 0.799992 7.92502C0.788881 7.84169 0.783325 7.75558 0.783325 7.66669C0.783325 7.5778 0.788881 7.49447 0.799992 7.41669C0.811103 7.33891 0.833325 7.27225 0.866659 7.21669C1.09999 6.71669 1.37777 6.25558 1.69999 5.83336C2.02221 5.41114 2.37777 5.02225 2.76666 4.66669L1.38333 3.26669C1.2611 3.14447 1.19999 2.99169 1.19999 2.80836C1.19999 2.62502 1.26666 2.46669 1.39999 2.33336C1.52221 2.21114 1.67777 2.15002 1.86666 2.15002C2.05555 2.15002 2.2111 2.21114 2.33333 2.33336L13.6667 13.6667C13.7889 13.7889 13.8528 13.9417 13.8583 14.125C13.8639 14.3084 13.8 14.4667 13.6667 14.6C13.5444 14.7222 13.3889 14.7834 13.2 14.7834C13.0111 14.7834 12.8555 14.7222 12.7333 14.6ZM7.99999 10.6667C8.12221 10.6667 8.2361 10.6611 8.34166 10.65C8.44721 10.6389 8.5611 10.6167 8.68333 10.5834L5.08333 6.98336C5.04999 7.10558 5.02777 7.21947 5.01666 7.32502C5.00555 7.43058 4.99999 7.54447 4.99999 7.66669C4.99999 8.50002 5.29166 9.20836 5.87499 9.79169C6.45833 10.375 7.16666 10.6667 7.99999 10.6667ZM9.76666 7.90002L7.76666 5.90002C8.39999 5.80002 8.91666 5.9778 9.31666 6.43336C9.71666 6.88891 9.86666 7.3778 9.76666 7.90002Z" fill="current"/>
</g>
</svg>
